<svg version="1.1" id="Layer_1" xmlns="http://www.w3.org/2000/svg" xmlns:xlink="http://www.w3.org/1999/xlink" x="0px" y="0px"
	 width="100%" viewBox="0 0 368 230" enable-background="new 0 0 368 230" xml:space="preserve">
<path fill="#FFFFFE" opacity="1.000000" stroke="none" 
	d="
M260.000000,231.000000 
	C173.369354,231.000000 87.238701,231.000000 1.054027,231.000000 
	C1.054027,154.401428 1.054027,77.802811 1.054027,1.102098 
	C123.547249,1.102098 246.094604,1.102098 368.820984,1.102098 
	C368.820984,77.666321 368.820984,154.333130 368.820984,231.000000 
	C332.802917,231.000000 296.651459,231.000000 260.000000,231.000000 
M131.028397,209.223145 
	C146.351028,209.223801 161.674774,209.341019 176.996033,209.196213 
	C197.117844,209.006042 210.255890,199.317139 214.953781,179.793808 
	C226.548599,131.608521 237.603500,83.293274 248.834320,35.020687 
	C249.221802,33.355206 249.168976,31.587280 249.360809,29.421938 
	C233.670364,29.421938 218.703583,29.467749 203.737183,29.410774 
	C183.313492,29.333029 166.533493,40.164570 161.850525,62.996334 
	C156.507019,89.048668 150.050552,114.873352 144.034561,140.786942 
	C139.108704,162.004837 134.080521,183.199127 129.244537,204.437332 
	C128.916779,205.876724 129.823868,207.597305 131.028397,209.223145 
M76.499924,181.907913 
	C82.329308,181.862488 88.161324,181.913284 93.987595,181.754074 
	C113.813057,181.212448 126.354591,171.233719 130.961090,151.888733 
	C138.010651,122.284172 144.810974,92.620224 151.693771,62.976067 
	C152.085098,61.290634 152.266373,59.556435 152.612732,57.432144 
	C135.032135,57.432144 118.195351,56.751022 101.438065,57.613914 
	C82.773636,58.575012 70.302818,69.448204 65.806145,87.801178 
	C59.552227,113.326317 53.866276,138.990524 47.921066,164.591446 
	C46.624893,170.172928 45.260571,175.738571 43.784985,181.907913 
	C54.889904,181.907913 65.194931,181.907913 76.499924,181.907913 
M231.300766,153.915176 
	C229.340454,163.082550 227.380142,172.249924 225.311783,181.922531 
	C241.162292,181.922531 256.303711,181.969971 271.444763,181.911423 
	C294.156616,181.823593 307.876587,170.887680 313.030243,148.725174 
	C318.492706,125.234482 323.853363,101.720123 329.277679,78.220528 
	C330.830963,71.491325 332.450745,64.777466 334.106750,57.774490 
	C332.308167,57.564850 331.341797,57.351562 330.376190,57.354660 
	C314.052643,57.406986 297.679230,56.713963 281.419067,57.765545 
	C263.295837,58.937618 251.198624,70.246147 246.926514,88.014015 
	C241.714279,109.691940 236.670822,131.410446 231.300766,153.915176 
M332.911987,179.377869 
	C339.789246,177.276703 343.769409,172.871979 343.711914,167.425964 
	C343.663757,162.864899 339.453735,157.515564 334.586304,156.101624 
	C329.639435,154.664612 325.372284,155.994202 321.984589,159.846069 
	C318.847382,163.413132 318.135437,167.546783 319.937561,171.917343 
	C322.157745,177.301682 326.417877,179.659393 332.911987,179.377869 
z"/>
<path fill="#F37022" opacity="1.000000" stroke="none" 
	d="
M130.592529,209.205124 
	C129.823868,207.597305 128.916779,205.876724 129.244537,204.437332 
	C134.080521,183.199127 139.108704,162.004837 144.034561,140.786942 
	C150.050552,114.873352 156.507019,89.048668 161.850525,62.996334 
	C166.533493,40.164570 183.313492,29.333029 203.737183,29.410774 
	C218.703583,29.467749 233.670364,29.421938 249.360809,29.421938 
	C249.168976,31.587280 249.221802,33.355206 248.834320,35.020687 
	C237.603500,83.293274 226.548599,131.608521 214.953781,179.793808 
	C210.255890,199.317139 197.117844,209.006042 176.996033,209.196213 
	C161.674774,209.341019 146.351028,209.223801 130.592529,209.205124 
z"/>
<path fill="#0E4EA3" opacity="1.000000" stroke="none" 
	d="
M75.999939,181.907913 
	C65.194931,181.907913 54.889904,181.907913 43.784985,181.907913 
	C45.260571,175.738571 46.624893,170.172928 47.921066,164.591446 
	C53.866276,138.990524 59.552227,113.326317 65.806145,87.801178 
	C70.302818,69.448204 82.773636,58.575012 101.438065,57.613914 
	C118.195351,56.751022 135.032135,57.432144 152.612732,57.432144 
	C152.266373,59.556435 152.085098,61.290634 151.693771,62.976067 
	C144.810974,92.620224 138.010651,122.284172 130.961090,151.888733 
	C126.354591,171.233719 113.813057,181.212448 93.987595,181.754074 
	C88.161324,181.913284 82.329308,181.862488 75.999939,181.907913 
z"/>
<path fill="#4DB949" opacity="1.000000" stroke="none" 
	d="
M231.427582,153.513290 
	C236.670822,131.410446 241.714279,109.691940 246.926514,88.014015 
	C251.198624,70.246147 263.295837,58.937618 281.419067,57.765545 
	C297.679230,56.713963 314.052643,57.406986 330.376190,57.354660 
	C331.341797,57.351562 332.308167,57.564850 334.106750,57.774490 
	C332.450745,64.777466 330.830963,71.491325 329.277679,78.220528 
	C323.853363,101.720123 318.492706,125.234482 313.030243,148.725174 
	C307.876587,170.887680 294.156616,181.823593 271.444763,181.911423 
	C256.303711,181.969971 241.162292,181.922531 225.311783,181.922531 
	C227.380142,172.249924 229.340454,163.082550 231.427582,153.513290 
z"/>
<path fill="#2261AD" opacity="1.000000" stroke="none" 
	d="
M332.533569,179.448090 
	C326.417877,179.659393 322.157745,177.301682 319.937561,171.917343 
	C318.135437,167.546783 318.847382,163.413132 321.984589,159.846069 
	C325.372284,155.994202 329.639435,154.664612 334.586304,156.101624 
	C339.453735,157.515564 343.663757,162.864899 343.711914,167.425964 
	C343.769409,172.871979 339.789246,177.276703 332.533569,179.448090 
M332.911560,158.597824 
	C329.937683,159.625275 326.210876,159.869171 324.151367,161.848175 
	C320.226105,165.619949 321.525513,172.300568 325.963409,175.361038 
	C330.424591,178.437607 336.516479,176.860840 339.188263,171.937988 
	C342.004517,166.748947 339.848877,161.659012 332.911560,158.597824 
z"/>
<path fill="#E7EEF6" opacity="1.000000" stroke="none" 
	d="
M333.273499,158.712189 
	C339.848877,161.659012 342.004517,166.748947 339.188263,171.937988 
	C336.516479,176.860840 330.424591,178.437607 325.963409,175.361038 
	C321.525513,172.300568 320.226105,165.619949 324.151367,161.848175 
	C326.210876,159.869171 329.937683,159.625275 333.273499,158.712189 
M328.942902,173.575226 
	C329.154541,172.196564 329.366180,170.817886 329.608002,169.242630 
	C331.629242,171.102554 333.398132,172.730270 335.167023,174.357971 
	C335.238037,171.690155 333.827911,169.847092 334.007812,168.175125 
	C334.790802,160.897202 334.635803,160.599777 326.025177,161.683914 
	C326.730438,165.760071 327.434784,169.830994 328.942902,173.575226 
z"/>
<path fill="#1E5AA9" opacity="1.000000" stroke="none" 
	d="
M328.541016,173.738571 
	C327.434784,169.830994 326.730438,165.760071 326.025177,161.683914 
	C334.635803,160.599777 334.790802,160.897202 334.007812,168.175125 
	C333.827911,169.847092 335.238037,171.690155 335.167023,174.357971 
	C333.398132,172.730270 331.629242,171.102554 329.608002,169.242630 
	C329.366180,170.817886 329.154541,172.196564 328.541016,173.738571 
z"/>
</svg>